<svg fill="#163a6a" xmlns="http://www.w3.org/2000/svg" xmlns:xlink="http://www.w3.org/1999/xlink" version="1.1" x="0px" y="0px" viewBox="0 0 100 100" style="enable-background:new 0 0 100 100;" xml:space="preserve"><style type="text/css">
	.st0{fill:none;stroke:#163a6a;stroke-width:3;stroke-linecap:round;stroke-miterlimit:10;}
	.st1{fill:none;stroke:#163a6a;stroke-linecap:round;stroke-miterlimit:10;}
</style><g><path d="M82.4,48.9C82.4,48.9,82.4,48.9,82.4,48.9l-15-14.8c-0.6-0.6-1.5-0.6-2.1,0c-0.6,0.6-0.6,1.5,0,2.1l12.4,12.3H18.6   c-0.8,0-1.5,0.7-1.5,1.5s0.7,1.5,1.5,1.5h59.1L65.3,63.8c-0.6,0.6-0.6,1.5,0,2.1c0.3,0.3,0.7,0.4,1.1,0.4c0.4,0,0.8-0.1,1.1-0.4   l15-14.8c0,0,0,0,0,0l1.1-1.1L82.4,48.9z"></path></g></svg>