<svg xmlns="http://www.w3.org/2000/svg" xmlns:xlink="http://www.w3.org/1999/xlink" width="100" height="100" viewBox="0 0 100 100"><g><g transform="translate(50 50) scale(0.69 0.69) rotate(0) translate(-50 -50)" style="fill:#e19618"><svg fill="#e19618" xmlns="http://www.w3.org/2000/svg" viewBox="0 0 40 40" x="0px" y="0px"><path fill="#e19618" fill-rule="evenodd" d="M478.467447,27.2096836 L481.294127,33.2715179 L478.133029,33.1851501 L476.167276,35.6622078 L473.633031,30.2275024 L473.628041,30.2349963 C473.320548,30.6967115 472.691506,30.8164139 472.236966,30.5116982 L471.174322,29.7993196 C470.713545,29.4904226 469.960241,29.4946039 469.505702,29.7993196 L468.443057,30.5116982 C467.982281,30.8205952 467.355313,30.6904616 467.051983,30.2349963 L467.046992,30.2275024 L464.512747,35.6622078 L462.546994,33.1851501 L459.385896,33.2715179 L462.212576,27.2096836 L462.119897,26.7400192 C462.012502,26.1957777 461.476879,25.6660679 460.940004,25.5601264 L459.684874,25.3124513 C459.140632,25.2050561 458.789317,24.6697046 458.896893,24.1331552 L459.148389,22.8787846 C459.257441,22.3348726 458.965301,21.6405105 458.509836,21.3371803 L457.445027,20.6280407 C456.983312,20.3205482 456.86361,19.6915056 457.168325,19.236966 L457.880704,18.174322 C458.189601,17.7135452 458.18542,16.9602411 457.880704,16.5057015 L457.168325,15.4430575 C456.859428,14.9822807 456.989562,14.355313 457.445027,14.0519828 L458.509836,13.3428432 C458.971551,13.0353507 459.255965,12.3377884 459.148389,11.8012389 L458.896893,10.5468683 C458.787841,10.0029563 459.147999,9.47351371 459.684874,9.3675722 L460.940004,9.11989713 C461.484246,9.01250188 462.013956,8.47687885 462.119897,7.9400043 L462.367572,6.68487372 C462.474967,6.14063215 463.010319,5.78931743 463.546868,5.89689322 L464.801239,6.14838898 C465.345151,6.25744094 466.039513,5.96530092 466.342843,5.50983558 L467.051983,4.44502727 C467.359475,3.98331201 467.988518,3.86360965 468.443057,4.16832532 L469.505702,4.88070395 C469.966478,5.18960094 470.719782,5.18541961 471.174322,4.88070395 L472.236966,4.16832532 C472.697743,3.85942833 473.324711,3.98956193 473.628041,4.44502727 L474.33718,5.50983558 C474.644673,5.97155084 475.342235,6.25596478 475.878785,6.14838898 L477.133155,5.89689322 C477.677067,5.78784127 478.20651,6.14799917 478.312451,6.68487372 L478.560126,7.9400043 C478.667522,8.48424587 479.203145,9.01395562 479.740019,9.11989713 L480.99515,9.3675722 C481.539391,9.47496745 481.890706,10.0103189 481.78313,10.5468683 L481.531635,11.8012389 C481.422583,12.345151 481.714723,13.039513 482.170188,13.3428432 L483.234996,14.0519828 C483.696712,14.3594753 483.816414,14.9885179 483.511698,15.4430575 L482.79932,16.5057015 C482.490423,16.9664784 482.494604,17.7197824 482.79932,18.174322 L483.511698,19.236966 C483.820595,19.6977429 483.690462,20.3247105 483.234996,20.6280407 L482.170188,21.3371803 C481.708473,21.6446728 481.424059,22.3422351 481.531635,22.8787846 L481.78313,24.1331552 C481.892182,24.6770672 481.532024,25.2065098 480.99515,25.3124513 L479.740019,25.5601264 C479.195778,25.6675216 478.666068,26.2031447 478.560126,26.7400192 L478.467447,27.2096836 Z M477.990138,28.5522918 C477.762352,28.7513952 477.44796,28.8462472 477.133155,28.7831303 L475.878785,28.5316345 C475.334873,28.4225826 474.64051,28.7147226 474.33718,29.1701879 L474.282007,29.2530334 L476.389773,33.7731527 L477.660528,32.1718671 L479.704009,32.2276993 L477.990138,28.5522918 Z M466.398017,29.2530334 L466.342843,29.1701879 C466.035351,28.7084727 465.337788,28.4240587 464.801239,28.5316345 L463.546868,28.7831303 C463.229105,28.8468405 462.91628,28.7504039 462.689954,28.552144 L460.976015,32.2276993 L463.019496,32.1718671 L464.29025,33.7731527 L466.398017,29.2530334 Z M472.594747,28.6800003 C472.59284,28.6787217 473.248132,27.7012137 473.248132,27.7012137 C473.734406,26.9710502 474.746641,26.5497199 475.610124,26.7228446 L476.762745,26.9539399 C476.760494,26.9534885 476.991829,25.7996192 476.991829,25.7996192 C477.161665,24.9389474 477.935612,24.1623234 478.799619,23.9918288 L479.952938,23.7642443 C479.950685,23.7646888 479.722845,22.6101245 479.722845,22.6101245 C479.550388,21.7499737 479.968221,20.73629 480.701214,20.2481324 L481.679649,19.5965157 C481.677737,19.5977885 481.025407,18.618301 481.025407,18.618301 C480.536913,17.8896216 480.53502,16.7932023 481.025407,16.0616993 L481.68,15.0852531 C481.678722,15.0871604 480.701214,14.4318679 480.701214,14.4318679 C479.97105,13.9455946 479.54972,12.9333596 479.722845,12.0698758 L479.95394,10.9172554 C479.953488,10.9195067 478.799619,10.6881715 478.799619,10.6881715 C477.938947,10.518335 477.162323,9.74438803 476.991829,8.88038106 L476.764244,7.72706224 C476.764689,7.72931499 475.610124,7.95715575 475.610124,7.95715575 C474.749974,8.12961217 473.73629,7.71177951 473.248132,6.97878661 L472.596516,6.00035179 C472.597789,6.00226294 471.618301,6.65459299 471.618301,6.65459299 C470.889622,7.14308738 469.793202,7.14498029 469.061699,6.65459299 L468.085253,6 C468.08716,6.0012786 467.431868,6.97878661 467.431868,6.97878661 C466.945595,7.70895013 465.93336,8.13028044 465.069876,7.95715575 L463.917255,7.72606044 C463.919507,7.72651183 463.688172,8.88038106 463.688172,8.88038106 C463.518335,9.74105294 462.744388,10.5176769 461.880381,10.6881715 L460.727062,10.9157561 C460.729315,10.9153115 460.957156,12.0698758 460.957156,12.0698758 C461.129612,12.9300266 460.71178,13.9437103 459.978787,14.4318679 L459.000352,15.0834846 C459.002263,15.0822118 459.654593,16.0616993 459.654593,16.0616993 C460.143087,16.7903787 460.14498,17.886798 459.654593,18.618301 L459,19.5947472 C459.001279,19.5928399 459.978787,20.2481324 459.978787,20.2481324 C460.70895,20.7344057 461.13028,21.7466407 460.957156,22.6101245 L460.72606,23.762745 C460.726512,23.7604936 461.880381,23.9918288 461.880381,23.9918288 C462.741053,24.1616653 463.517677,24.9356123 463.688172,25.7996192 L463.915756,26.9529381 C463.915312,26.9506853 465.069876,26.7228446 465.069876,26.7228446 C465.930027,26.5503881 466.94371,26.9682208 467.431868,27.7012137 L468.083485,28.6796485 C468.082212,28.6777374 469.061699,28.0254073 469.061699,28.0254073 C469.790379,27.5369129 470.886798,27.53502 471.618301,28.0254073 L472.594747,28.6800003 Z M470.340012,26.3400118 C465.369449,26.3400118 461.340012,22.3105745 461.340012,17.3400118 C461.340012,12.369449 465.369449,8.34001176 470.340012,8.34001176 C475.310575,8.34001176 479.340012,12.369449 479.340012,17.3400118 C479.340012,22.3105745 475.310575,26.3400118 470.340012,26.3400118 Z M470.340012,25.3400118 C474.75829,25.3400118 478.340012,21.7582898 478.340012,17.3400118 C478.340012,12.9217338 474.75829,9.34001176 470.340012,9.34001176 C465.921734,9.34001176 462.340012,12.9217338 462.340012,17.3400118 C462.340012,21.7582898 465.921734,25.3400118 470.340012,25.3400118 Z M466.642365,17.446467 L466.942862,17.1459699 C467.136364,16.9524685 467.448586,16.9521905 467.640987,17.1445919 L468.94424,18.447845 C469.135677,18.6392818 469.451541,18.6372915 469.647587,18.4412451 L472.937641,15.1511918 C473.140694,14.9481388 473.449203,14.9528075 473.642365,15.1459699 L473.942862,15.446467 C474.136364,15.6399685 474.131621,15.9572113 473.933026,16.1558061 L469.998387,20.0904453 C469.605386,20.4834461 468.974307,20.4779117 468.581656,20.0852603 L466.648534,18.1521386 C466.453907,17.9575115 466.449203,17.6396294 466.642365,17.446467 Z" transform="translate(-450)"></path></svg></g></g></svg>