<svg fill="#828282" xmlns="http://www.w3.org/2000/svg" xmlns:xlink="http://www.w3.org/1999/xlink" version="1.1" x="0px" y="0px" viewBox="0 0 100 100" enable-background="new 0 0 100 100" xml:space="preserve"><g><path d="M86,53.751H20.499V17.428c0-3.084,2.474-5.597,5.54-5.67c-0.021,0.166-0.043,0.332-0.039,0.503   c0.019,0.887,0.377,1.723,1.009,2.354l0.623,0.623c-1.823,3.062-1.571,6.915,0.865,9.352l0.353,0.353l-1.414,1.414l2.121,2.121   l1.414-1.414h0.001l14.142-14.143l0,0l1.413-1.414l-2.121-2.121L42.991,10.8l-0.352-0.352c-1.33-1.33-3.144-2.063-5.106-2.063   c-1.477,0-2.944,0.43-4.241,1.199l-0.627-0.626c-1.22-1.222-3.279-1.288-4.556-0.208h-1.934c-4.784,0-8.677,3.893-8.677,8.677   v36.323h-3.5c-1.93,0-3.499,1.57-3.499,3.5s1.569,3.5,3.499,3.5H17.5v0.001h64.999v-0.001H86c1.93,0,3.5-1.57,3.5-3.5   S87.93,53.751,86,53.751z"></path><rect x="38.225" y="22.381" transform="matrix(-0.7071 -0.7071 0.7071 -0.7071 53.4885 69.9174)" width="5.999" height="3"></rect><rect x="58.109" y="40.266" transform="matrix(0.7071 -0.7071 0.7071 0.7071 -12.4276 54.5293)" width="3" height="4.001"></rect><rect x="50.952" y="35.109" transform="matrix(0.707 0.7072 -0.7072 0.707 41.696 -27.4288)" width="6" height="3"></rect><rect x="46.089" y="27.245" transform="matrix(0.7071 -0.7071 0.7071 0.7071 -7.4482 42.5087)" width="3" height="6"></rect><rect x="51.744" y="39.974" transform="matrix(0.7071 -0.7071 0.7071 0.7071 -14.7921 50.236)" width="3" height="5.999"></rect><rect x="39.017" y="27.246" transform="matrix(-0.7071 0.7071 -0.7071 -0.7071 90.5534 22.9837)" width="3" height="5.999"></rect><rect x="56.9" y="47.131" transform="matrix(0.7071 0.7071 -0.7071 0.7071 51.6385 -27.4057)" width="4.001" height="3"></rect><rect x="43.88" y="35.11" transform="matrix(-0.7071 -0.7071 0.7071 -0.7071 54.1427 95.6464)" width="6.001" height="3"></rect><rect x="51.745" y="25.83" transform="matrix(0.7071 -0.7071 0.7071 0.7071 -4.7913 46.0939)" width="3" height="6.001"></rect><rect x="43.881" y="20.967" transform="matrix(-0.7071 -0.7071 0.7071 -0.7071 64.1442 71.503)" width="5.999" height="3"></rect><rect x="58.109" y="32.195" transform="matrix(0.7071 -0.7071 0.7071 0.7071 -7.4273 52.4577)" width="3" height="5.999"></rect><rect x="63.264" y="39.352" transform="matrix(0.7071 0.7071 -0.7071 0.7071 48.0023 -34.1846)" width="4.002" height="3"></rect><rect x="65.179" y="33.195" transform="matrix(-0.7071 0.7071 -0.7071 -0.7071 138.7157 12.9337)" width="3" height="4.001"></rect><rect x="46.795" y="13.811" transform="matrix(-0.7071 0.7071 -0.7071 -0.7071 94.3314 -5.4523)" width="3" height="5.999"></rect><rect x="59.523" y="26.539" transform="matrix(-0.7071 0.7071 -0.7071 -0.7071 125.0588 7.2761)" width="3" height="6"></rect><rect x="53.159" y="20.175" transform="matrix(-0.7071 0.7071 -0.7071 -0.7071 109.6953 0.9123)" width="3" height="6"></rect><rect x="37.517" y="35.816" transform="matrix(0.7071 0.7071 -0.7071 0.7071 38.2535 -17.7203)" width="6.001" height="3"></rect><rect x="31.154" y="29.452" transform="matrix(-0.7071 -0.7071 0.7071 -0.7071 36.4169 76.9887)" width="5.999" height="3"></rect><rect x="43.881" y="42.18" transform="matrix(0.7071 0.7071 -0.7071 0.7071 44.6173 -20.3563)" width="5.999" height="3"></rect><rect x="50.537" y="47.837" transform="matrix(0.7071 0.7071 -0.7071 0.7071 50.274 -22.6994)" width="4.001" height="3"></rect><path d="M17.5,65.545c0,8.869,5.189,16.538,12.668,20.093c-0.507,1.967-2.279,3.374-4.332,3.374c-0.413,0-0.823-0.057-1.219-0.168   l-0.814,2.887c0.66,0.187,1.345,0.281,2.033,0.281c3.3,0,6.183-2.172,7.146-5.265c2.071,0.652,4.273,1.004,6.556,1.004h20.923   c2.222,0,4.367-0.336,6.392-0.956c0.978,3.067,3.847,5.217,7.13,5.217c0.688,0,1.373-0.095,2.033-0.281l-0.814-2.887   c-0.396,0.111-0.806,0.168-1.219,0.168c-2.027,0-3.779-1.372-4.312-3.301c7.564-3.521,12.828-11.234,12.828-20.166v-1.793H17.5   V65.545z"></path></g></svg>