<svg fill="#fff" xmlns="http://www.w3.org/2000/svg" viewBox="0 0 64 64" x="0px" y="0px"><title>bed</title><g data-name="Layer 59"><path d="M61,55H56.15l-1-6H8.85l-1,6H3V41a3,3,0,0,1,3-3H58a3,3,0,0,1,3,3Zm-3.15-2H59V41a1,1,0,0,0-1-1H6a1,1,0,0,0-1,1V53H6.15l1-6h49.7Z"></path><path d="M31,30H13V21.91A3.91,3.91,0,0,1,16.91,18H27.09A3.91,3.91,0,0,1,31,21.91ZM15,28H29V21.91A1.92,1.92,0,0,0,27.09,20H16.91A1.92,1.92,0,0,0,15,21.91Z"></path><path d="M51,30H33V21.91A3.91,3.91,0,0,1,36.91,18H47.09A3.91,3.91,0,0,1,51,21.91ZM35,28H49V21.91A1.92,1.92,0,0,0,47.09,20H36.91A1.92,1.92,0,0,0,35,21.91Z"></path><path d="M7,36H5V12A3,3,0,0,1,8,9a3,3,0,0,1,3,3V30.31l-.57.27A5.94,5.94,0,0,0,7,36ZM8,11a1,1,0,0,0-1,1V30.69a8.12,8.12,0,0,1,2-1.62V12a.93.93,0,0,0-.29-.69A1,1,0,0,0,8,11Zm2,18.68h0Z"></path><path d="M59,36H57a5.94,5.94,0,0,0-3.43-5.42L53,30.31V12a3,3,0,0,1,3-3,3,3,0,0,1,3,3Zm-4-6.93a8.12,8.12,0,0,1,2,1.62V12a.93.93,0,0,0-.29-.69A1,1,0,0,0,56,11a1,1,0,0,0-1,1Z"></path><path d="M59,40H5V36a7.91,7.91,0,0,1,4.57-7.22A7.77,7.77,0,0,1,13,28H51a7.84,7.84,0,0,1,3.44.78A7.92,7.92,0,0,1,59,36ZM7,38H57V36a6,6,0,0,0-6-6H13a6,6,0,0,0-6,6Z"></path><rect x="9" y="12" width="46" height="2"></rect></g></svg>