<svg xmlns="http://www.w3.org/2000/svg" xmlns:xlink="http://www.w3.org/1999/xlink" xml:space="preserve" version="1.1" style="shape-rendering:geometricPrecision;text-rendering:geometricPrecision;image-rendering:optimizeQuality;" viewBox="0 0 282 180" x="0px" y="0px" ><defs><style type="text/css">
   
    .fil0 {fill:#fff}
   
  </style></defs><g><path class="fil0" d="M202 1c-19,0 -35,15 -35,35 0,19 16,34 35,34 19,0 35,-15 35,-34 0,-20 -16,-35 -35,-35z"></path><path class="fil0" d="M1 150c-20,41 210,39 190,0 -36,-72 -153,-72 -190,0z"></path><path class="fil0" d="M198 151c45,0 92,-9 83,-25 -25,-50 -95,-58 -136,-26 22,9 40,25 52,47 0,1 1,3 1,4z"></path><path class="fil0" d="M96 0c-23,0 -41,19 -41,42 0,23 18,42 41,42 23,0 42,-19 42,-42 0,-23 -19,-42 -42,-42z"></path></g></svg>