<svg height='100px' width='100px'  fill="#828282" xmlns="http://www.w3.org/2000/svg" xmlns:xlink="http://www.w3.org/1999/xlink" version="1.1" x="0px" y="0px" viewBox="0 0 90 70.4" style="enable-background:new 0 0 90 70.4;" xml:space="preserve"><title>room_13</title><g><g><path d="M89.8,0.2C89.7,0.1,89.5,0,89.4,0L45,6.8L0.6,0C0.5,0,0.3,0.1,0.2,0.2C0.1,0.3,0,0.4,0,0.6v46.1c0,0.2,0.1,0.4,0.3,0.5    l44.4,23.1c0.2,0.1,0.4,0.1,0.5,0l44.4-23.1c0.2-0.1,0.3-0.3,0.3-0.5V0.6C90,0.4,89.9,0.3,89.8,0.2z M48.2,40.4l-3.7,0.9l-3.3-0.8    l3.7-0.6L48.2,40.4z M19.3,42.7V14l6.4,0.6v27L19.3,42.7z M26.3,41.5V14.7l5.8,0.6v25.2L26.3,41.5z M39,46.2l5,1.7l-5.5,1.9    l-5.1-2L39,46.2z M32.8,47.5l-4.9-1.9l5.7-1.3l4.8,1.7L32.8,47.5z M44.7,48.1l5.6,1.9l-5.5,2.2L39.2,50L44.7,48.1z M45.3,47.9    l5-1.7l5.7,1.6l-5.1,2L45.3,47.9z M44.7,47.7l-5-1.7l4.9-1.4l5,1.4L44.7,47.7z M39,45.7l-4.7-1.6l4.8-1.2l4.8,1.4L39,45.7z     M33.6,43.8l-4-1.4l5-0.9l3.8,1.1L33.6,43.8z M32.8,44l-5.6,1.3l-4.4-1.7l5.9-1L32.8,44z M26.6,45.5l-5.9,1.4l-4.8-2.1l6.3-1.1    L26.6,45.5z M27.2,45.8l5,2l-5.8,1.6l-5.2-2.2L27.2,45.8z M32.8,48l5.2,2l-5.7,2L27,49.6L32.8,48z M38.6,50.2l5.6,2.2l-5.6,2.2    l-5.7-2.4L38.6,50.2z M44.7,52.7l5.7,2.2l-5.7,2.4l-5.7-2.4L44.7,52.7z M45.3,52.4l5.6-2.2l5.7,2l-5.7,2.4L45.3,52.4z M51.4,50    l5.1-2l5.8,1.7L57.1,52L51.4,50z M57.2,47.8l4.9-1.9l6,1.4L63,49.4L57.2,47.8z M56.5,47.6L50.9,46l4.8-1.7l5.7,1.4L56.5,47.6z     M50.3,45.8l-4.9-1.4l4.7-1.3l4.9,1.1L50.3,45.8z M44.6,44.1l-4.7-1.4l4.7-1.1l4.8,1.1L44.6,44.1z M39.1,42.5l-3.7-1.1l4.8-0.8    l3.4,0.8L39.1,42.5z M20.1,47.1l-5.5,1.3L9.5,46l5.7-1L20.1,47.1z M20.7,47.3l5.2,2.2l-5.5,1.6l-5.2-2.5L20.7,47.3z M26.4,49.8    l5.4,2.3L26.2,54l-5.4-2.6L26.4,49.8z M32.3,52.4l5.7,2.5L32.4,57l-5.7-2.7L32.3,52.4z M38.6,55l5.7,2.5l-5.7,2.5l-5.6-2.7    L38.6,55z M44.8,57.7l5.8,2.5L44.8,63L39,60.2L44.8,57.7z M45.3,57.4l5.7-2.5l5.7,2.2L51,60L45.3,57.4z M51.5,54.8l5.7-2.5    l5.6,1.9L57.1,57L51.5,54.8z M57.7,52.1l5.3-2.2l5.6,1.6l-5.4,2.6L57.7,52.1z M63.6,49.6l5.1-2.2l5.6,1.3l-5.2,2.5L63.6,49.6z     M69.3,47.1l5.2-2.2l5.7,1l-5.3,2.5L69.3,47.1z M68.7,47l-6-1.4l4.7-1.9l6.3,1.1L68.7,47z M62.1,45.4l-5.7-1.3l4.4-1.5l5.9,1    L62.1,45.4z M55.7,43.9l-4.8-1.2l4.1-1.2l5,0.9L55.7,43.9z M50.1,42.6l-4.7-1.1l3.8-0.9l4.9,0.8L50.1,42.6z M1.4,1.4l42.9,6.8    v30.2l-10.7,1.8V14.7c0-0.3-0.2-0.7-0.6-0.7l-14.2-1.4c-0.4,0-0.7,0.2-0.7,0.6c0,0,0,0.1,0,0.1v29.6L1.4,45.8V1.4z M7.8,49.6    L3,47.1l5.9-1l5.1,2.5l-5.6,1.3L7.8,49.6z M8.9,50.2l5.7-1.3l5.2,2.5l-5.6,1.6L8.9,50.2z M14.7,53.2l5.6-1.6l5.4,2.6l-5.5,1.9    L14.7,53.2z M20.7,56.3l5.5-1.9l5.7,2.8l-5.5,2.1L20.7,56.3z M26.9,59.5l5.5-2.1l5.6,2.8l-5.5,2.4L26.9,59.5z M33,62.7l5.5-2.4    l5.8,2.8L39,65.7l0.1,0.2L33,62.7z M45,69l-5.7-3l5.5-2.6l5.7,2.7L45,69z M50.9,65.9l-5.7-2.7l5.8-2.8l5.7,2.5L50.9,65.9z     M57.2,62.6l-5.7-2.5l5.6-2.7l5.7,2.2L57.2,62.6z M63.3,59.5l-5.7-2.2l5.7-2.7l5.8,2L63.3,59.5z M69.5,56.2l-5.7-2l5.4-2.6    l5.8,1.7L69.5,56.2z M75.5,53.1l-5.8-1.7l5.2-2.5l5.9,1.4L75.5,53.1z M81.4,50l-5.9-1.4l5.4-2.6l6.2,1.1L81.4,50z M88.6,45.8    l-42.9-7.4V8.2l42.8-6.8L88.6,45.8z"></path></g></g></svg>